<svg width="285" height="323" viewBox="0 0 285 323" fill="none" xmlns="http://www.w3.org/2000/svg">
<g clip-path="url(#clip0_1516_294)">
<path d="M164.868 314.931L84.6243 315.243C63.3359 307.725 45.8943 281.612 45.784 242.46C45.7626 236.562 46.1417 230.672 46.9176 224.844L111.55 207.778L161.41 194.613C165.084 198.48 168.507 202.664 171.652 207.13L123.974 236.719L101.483 250.678L126.756 240.43L179.213 219.16C182.485 225.038 185.399 231.181 187.936 237.541L172.109 256.766L190.013 242.99C190.09 243.201 190.166 243.412 190.242 243.624C201.589 275.286 187.51 314.843 164.868 314.931Z" fill="#F2F2F2"/>
<path d="M151.681 185.752C139.546 189.848 124.627 195.023 109.288 200.403C87.1098 208.183 64.0545 216.393 47.2695 222.394L47.2805 222.324C47.9009 218.113 49.3595 214.133 51.5374 210.711C63.9712 191.71 79.8037 178.436 97.4246 173.506H97.4261C102.381 172.117 107.456 171.406 112.55 171.386C126.569 171.331 139.848 176.499 151.681 185.752Z" fill="#F2F2F2"/>
<path d="M99.6775 323C129.839 323 154.29 318.855 154.29 313.742C154.29 308.629 129.839 304.484 99.6775 304.484C69.5159 304.484 45.0652 308.629 45.0652 313.742C45.0652 318.855 69.5159 323 99.6775 323Z" fill="#3F3D56"/>
<path d="M80.2482 227.334V241.736L89.0002 242.97L94.2514 235.152L90.0504 225.277L80.2482 227.334Z" fill="#FBBEBE"/>
<path d="M113.506 286.585L118.057 300.987L126.459 297.695L120.157 285.762L113.506 286.585Z" fill="#FBBEBE"/>
<path d="M103.003 163.969C103.003 163.969 57.493 158.62 58.8933 173.433C60.2936 188.245 80.2481 230.626 80.2481 230.626L93.5511 227.746C93.5511 227.746 84.099 210.464 84.7991 204.704C85.4993 198.943 82.6987 191.126 82.6987 191.126L89.3502 192.36L93.201 199.355L101.253 247.908L113.506 291.523L122.608 288.643C122.608 288.643 117.707 270.538 119.107 264.778C120.507 259.017 112.455 236.798 112.455 236.798L118.057 198.12C118.057 198.12 128.909 194.417 125.758 181.662C122.608 168.906 103.003 163.969 103.003 163.969Z" fill="#2F2E41"/>
<path d="M84.099 237.21C84.099 237.21 78.8478 232.272 79.1979 234.329C79.3958 235.829 79.3958 237.356 79.1979 238.855L74.2968 251.611C74.2968 251.611 62.3941 264.366 73.2465 264.778C84.099 265.189 89.7002 252.022 89.7002 252.022C89.7002 252.022 104.754 238.855 103.003 236.798C101.253 234.741 92.0662 230.016 92.0662 230.016C92.0662 230.016 89.0001 240.09 84.099 237.21Z" fill="#2F2E41"/>
<path d="M117.707 294.403C117.707 294.403 112.805 289.054 112.455 291.523C112.105 293.992 111.755 297.283 111.755 297.283L104.404 305.513C104.404 305.513 93.9012 317.445 103.003 317.857C105.634 317.996 108.258 317.44 110.681 316.23C113.105 315.019 115.266 313.185 117.006 310.862C117.006 310.862 130.309 307.57 129.609 305.101C128.909 302.632 125.398 293.082 123.828 292.714C122.258 292.346 121.908 297.695 117.707 294.403Z" fill="#2F2E41"/>
<path d="M100.903 104.718C106.896 104.718 111.755 99.0071 111.755 91.9624C111.755 84.9178 106.896 79.207 100.903 79.207C94.9091 79.207 90.0503 84.9178 90.0503 91.9624C90.0503 99.0071 94.9091 104.718 100.903 104.718Z" fill="#FBBEBE"/>
<path d="M96.0016 100.603C96.0016 100.603 100.553 115.004 100.203 116.239C99.8525 117.473 114.556 105.952 114.556 105.952C114.556 105.952 108.254 104.306 108.254 97.7229L96.0016 100.603Z" fill="#FBBEBE"/>
<path d="M135.911 121.588C135.911 121.588 142.212 128.994 143.262 131.463C144.313 133.932 168.118 165.203 168.118 165.203C168.118 165.203 183.871 187.011 177.57 187.422C171.269 187.834 163.217 170.141 163.217 170.141C163.217 170.141 140.812 150.802 139.762 146.276L126.809 130.64L135.911 121.588Z" fill="#FBBEBE"/>
<path d="M103.003 112.947H99.1524L93.9012 122.822C93.9012 122.822 88.65 128.171 92.5009 139.281C96.3517 150.39 99.5024 164.38 99.5024 164.38C99.5024 164.38 110.705 166.026 112.805 170.141C114.906 174.255 126.809 187.422 126.809 187.422C126.809 187.422 128.909 178.782 128.209 166.026C127.509 153.271 128.209 133.932 128.209 133.932L127.509 108.421C127.509 108.421 113.988 104.737 113.046 105.345C112.105 105.952 103.003 112.947 103.003 112.947Z" fill="#575A89"/>
<path d="M122.258 109.655L127.509 108.421C127.509 108.421 133.11 112.536 138.361 124.468C138.361 124.468 127.159 133.109 126.108 132.697C125.058 132.286 122.258 109.655 122.258 109.655Z" fill="#575A89"/>
<path d="M90.0503 137.635C90.0503 137.635 81.9985 152.859 84.449 158.62C86.8996 164.38 90.0503 163.969 90.0503 163.969C90.0503 163.969 96.0016 162.734 96.0016 156.974C96.0016 151.213 98.4522 150.802 98.4522 150.802C98.4522 150.802 113.856 135.989 107.904 135.989C101.953 135.989 93.9012 146.276 93.9012 146.276L93.5511 136.812L90.0503 137.635Z" fill="#FBBEBE"/>
<path d="M95.3015 122.411C95.3015 122.411 90.0503 124.057 89.0001 130.64C87.9498 137.224 88.2999 140.515 88.2999 140.515L95.3015 139.692V122.411Z" fill="#575A89"/>
<path opacity="0.1" d="M85.4993 155.328C85.4993 155.328 91.1005 146.687 91.8007 147.922L85.4993 155.328Z" fill="black"/>
<path d="M106.416 76.5204C106.416 76.5204 100.661 69.7617 95.1198 74.2997C89.5791 78.8377 86.999 83.1598 87.6174 86.095C88.2358 89.0301 89.9631 93.0862 89.9631 93.0862C89.9631 93.0862 88.8104 87.0014 93.4685 86.4054C98.1267 85.8093 104.496 81.9801 104.496 81.9801L109.102 92.7963C109.102 92.7963 109.662 90.2398 111.388 90.9151C113.114 91.5904 111.467 77.1775 106.416 76.5204Z" fill="#2F2E41"/>
<path d="M67.0336 302.795C67.0336 308.794 63.9993 310.889 60.2559 310.889C60.1692 310.889 60.0826 310.888 59.9962 310.886C59.8227 310.881 59.6509 310.872 59.4812 310.858C56.1029 310.577 53.4782 308.374 53.4782 302.795C53.4782 297.02 59.7562 289.734 60.2278 289.195L60.2287 289.194C60.2468 289.173 60.2559 289.163 60.2559 289.163C60.2559 289.163 67.0336 296.795 67.0336 302.795Z" fill="#1A98D6"/>
<path d="M60.009 309.971L62.4879 305.9L60.0028 310.418L59.9962 310.886C59.8227 310.881 59.651 310.872 59.4812 310.858L59.7484 304.856L59.7464 304.809L59.7509 304.8L59.7761 304.233L57.2848 299.704L59.784 303.808L59.7897 303.929L59.9917 299.393L57.8588 294.713L60.0177 298.597L60.2279 289.195L60.2287 289.163V289.194L60.1936 296.608L62.317 293.669L60.1849 297.247L60.1288 301.308L62.1113 297.411L60.1205 301.905L60.0891 304.163L62.9674 298.739L60.0784 304.95L60.009 309.971Z" fill="#3F3D56"/>
<path d="M221.007 90.3847C221.007 90.3847 218.853 98.256 215.492 109.566C214.405 113.239 213.188 117.272 211.876 121.517C210.047 127.428 208.034 133.751 205.925 140.074C204.628 143.965 203.295 147.851 201.948 151.648C194.705 172 186.991 189.633 181.937 189.88C170.582 190.434 146.258 101.135 143.603 91.2678C143.448 90.6908 143.368 90.3847 143.368 90.3847H221.007Z" fill="#3F3D56"/>
<path opacity="0.1" d="M215.492 109.566C214.405 113.239 213.188 117.272 211.876 121.517L181.797 90.3847H196.959L215.492 109.566Z" fill="black"/>
<path opacity="0.1" d="M205.925 140.074C204.628 143.965 203.295 147.851 201.948 151.648L143.603 91.2678C143.448 90.6908 143.368 90.3847 143.368 90.3847H157.914L205.925 140.074Z" fill="black"/>
<path d="M183.534 11.2952C179.975 14.6089 174.347 13.3559 170.926 16.8655C168.586 19.2661 167.962 23.3712 168.601 26.9436C169.239 30.5161 170.936 33.6861 172.642 36.7359C173.82 38.8407 175.042 40.9621 176.697 42.563C179.012 44.8011 181.981 45.843 184.892 46.6798C191.232 48.5016 197.705 49.6045 204.224 49.9734C207.131 50.1377 210.423 49.9734 212.382 47.4434C213.522 45.9701 213.981 43.951 214.315 41.9983C214.838 38.9437 215.129 35.655 214.048 32.8097C213.16 30.471 211.451 28.718 209.721 27.1617C204.293 22.2801 197.9 18.2387 194.587 11.2124C193.27 8.41951 192.458 5.18316 190.463 3.01626C187.861 0.191873 182.073 -0.963018 179.01 0.923718C179.483 2.19175 185.668 9.30875 183.534 11.2952Z" fill="#1A98D6"/>
<path d="M153.625 44.23C152.57 48.5311 151.598 53.0818 152.486 57.4346C153.658 63.1735 157.939 67.4715 162.635 69.5607C167.331 71.6498 172.453 71.8937 177.471 72.114L203.743 73.2673C207.045 73.4123 210.41 73.5713 213.513 74.9053C216.07 76.0048 219.11 77.8153 221.242 75.8242C222.209 74.9211 222.644 73.4589 222.987 72.0644C224.104 67.5266 224.728 62.5437 223.227 58.1621C221.506 53.1411 217.263 49.8418 212.857 48.2648C208.451 46.6877 203.785 46.5342 199.208 45.9386C194.564 45.3342 189.973 44.266 185.484 42.7456C181.731 41.4743 177.928 39.7968 175.152 36.5675C173.651 34.8207 172.514 32.6905 171.098 30.8469C162.99 20.286 155.619 36.1024 153.625 44.23Z" fill="#1A98D6"/>
<path d="M147.852 63.9897C145.297 65.3349 143.08 67.433 141.417 70.0807C139.754 72.7283 138.701 75.8358 138.36 79.1023C138.019 82.3687 138.401 85.6833 139.47 88.7251C140.539 91.7669 142.258 94.4328 144.46 96.4645C148.461 100.155 153.696 101.438 158.768 101.867C163.721 102.287 168.695 101.998 173.654 101.71L217.535 99.1551C220.107 99.0053 223.019 98.6574 224.589 96.2581C225.761 94.4675 225.83 91.9978 225.55 89.7628C224.543 81.7229 219.378 74.6052 212.782 72.1685C210.295 71.2495 207.675 70.9587 205.079 70.6732L186.269 68.6046C183.735 68.326 181.188 68.0443 178.732 67.2599C171.294 64.8833 164.647 57.9446 156.988 58.972C151.792 59.669 147.514 63.9443 143.74 68.1988" fill="#1A98D6"/>
<path opacity="0.1" d="M172.42 29.1568C172.42 29.1568 178.56 42.1852 210.052 47.4456Z" fill="black"/>
<path opacity="0.1" d="M155 63.2803C155 63.2803 166.409 76.8439 213.494 76.8439Z" fill="black"/>
<path d="M181.436 22.6807C183.096 22.6807 184.442 22.1536 184.442 21.5033C184.442 20.853 183.096 20.3258 181.436 20.3258C179.776 20.3258 178.431 20.853 178.431 21.5033C178.431 22.1536 179.776 22.6807 181.436 22.6807Z" fill="#3F3D56"/>
<path d="M191.454 30.3342C193.114 30.3342 194.46 29.8071 194.46 29.1568C194.46 28.5065 193.114 27.9793 191.454 27.9793C189.794 27.9793 188.449 28.5065 188.449 29.1568C188.449 29.8071 189.794 30.3342 191.454 30.3342Z" fill="#3F3D56"/>
<path d="M202.975 38.5764C204.635 38.5764 205.98 38.0493 205.98 37.399C205.98 36.7487 204.635 36.2215 202.975 36.2215C201.315 36.2215 199.969 36.7487 199.969 37.399C199.969 38.0493 201.315 38.5764 202.975 38.5764Z" fill="#3F3D56"/>
<path d="M162.903 42.1088C164.563 42.1088 165.908 41.5817 165.908 40.9314C165.908 40.2811 164.563 39.7539 162.903 39.7539C161.243 39.7539 159.898 40.2811 159.898 40.9314C159.898 41.5817 161.243 42.1088 162.903 42.1088Z" fill="#3F3D56"/>
<path d="M188.449 53.2947C190.109 53.2947 191.454 52.7675 191.454 52.1172C191.454 51.4669 190.109 50.9398 188.449 50.9398C186.789 50.9398 185.443 51.4669 185.443 52.1172C185.443 52.7675 186.789 53.2947 188.449 53.2947Z" fill="#3F3D56"/>
<path d="M152.384 76.2552C154.044 76.2552 155.39 75.728 155.39 75.0777C155.39 74.4274 154.044 73.9003 152.384 73.9003C150.724 73.9003 149.379 74.4274 149.379 75.0777C149.379 75.728 150.724 76.2552 152.384 76.2552Z" fill="#3F3D56"/>
<path d="M171.418 54.4722C173.078 54.4722 174.424 53.945 174.424 53.2947C174.424 52.6444 173.078 52.1172 171.418 52.1172C169.758 52.1172 168.413 52.6444 168.413 53.2947C168.413 53.945 169.758 54.4722 171.418 54.4722Z" fill="#3F3D56"/>
<path d="M159.898 85.0861C161.557 85.0861 162.903 84.559 162.903 83.9087C162.903 83.2584 161.557 82.7312 159.898 82.7312C158.238 82.7312 156.892 83.2584 156.892 83.9087C156.892 84.559 158.238 85.0861 159.898 85.0861Z" fill="#3F3D56"/>
<path d="M179.433 79.7875C181.092 79.7875 182.438 79.2604 182.438 78.6101C182.438 77.9598 181.092 77.4326 179.433 77.4326C177.773 77.4326 176.427 77.9598 176.427 78.6101C176.427 79.2604 177.773 79.7875 179.433 79.7875Z" fill="#3F3D56"/>
<path d="M191.204 108.047C193.002 108.047 194.46 104.488 194.46 100.099C194.46 95.7093 193.002 92.1509 191.204 92.1509C189.406 92.1509 187.948 95.7093 187.948 100.099C187.948 104.488 189.406 108.047 191.204 108.047Z" fill="#1A98D6"/>
<path d="M195.211 110.99C197.009 110.99 198.467 107.432 198.467 103.042C198.467 98.6529 197.009 95.0945 195.211 95.0945C193.413 95.0945 191.955 98.6529 191.955 103.042C191.955 107.432 193.413 110.99 195.211 110.99Z" fill="#1A98D6"/>
<path d="M188.531 179.679C188.557 179.522 189.233 175.764 192.765 170.28C196.005 165.249 202.38 157.763 214.344 150.67C237.01 137.232 242.082 111.986 242.13 111.733L242.736 111.893C242.724 111.958 241.455 118.421 237.372 126.465C231.953 137.123 224.062 145.746 214.624 151.321C191.996 164.736 189.165 179.675 189.139 179.824L188.531 179.679Z" fill="#3F3D56"/>
<path d="M243.289 109.032C245.518 109.032 247.324 106.909 247.324 104.29C247.324 101.671 245.518 99.5477 243.289 99.5477C241.061 99.5477 239.255 101.671 239.255 104.29C239.255 106.909 241.061 109.032 243.289 109.032Z" fill="#1A98D6"/>
<path d="M242.491 132.039C244.719 132.039 246.526 129.916 246.526 127.297C246.526 124.678 244.719 122.555 242.491 122.555C240.263 122.555 238.457 124.678 238.457 127.297C238.457 129.916 240.263 132.039 242.491 132.039Z" fill="#3F3D56"/>
<path d="M229.367 133.654C231.595 133.654 233.401 131.531 233.401 128.912C233.401 126.293 231.595 124.17 229.367 124.17C227.138 124.17 225.332 126.293 225.332 128.912C225.332 131.531 227.138 133.654 229.367 133.654Z" fill="#1A98D6"/>
<path d="M231.407 149.308C233.635 149.308 235.441 147.185 235.441 144.566C235.441 141.947 233.635 139.824 231.407 139.824C229.178 139.824 227.372 141.947 227.372 144.566C227.372 147.185 229.178 149.308 231.407 149.308Z" fill="#1A98D6"/>
<path d="M212.531 149.629C214.759 149.629 216.565 147.506 216.565 144.887C216.565 142.269 214.759 140.146 212.531 140.146C210.303 140.146 208.496 142.269 208.496 144.887C208.496 147.506 210.303 149.629 212.531 149.629Z" fill="#3F3D56"/>
<path d="M190.217 181.755C190.217 181.755 194.011 169.972 207.951 173.225L190.217 181.755Z" fill="#3F3D56"/>
<path d="M186.701 177.635C186.701 177.635 192.535 167.065 182.053 155.786L186.701 177.635Z" fill="#3F3D56"/>
<path d="M282.219 183.246L275.54 180.148L268.861 177.05L274.483 171.801L280.104 166.551L281.162 174.898L282.219 183.246Z" fill="#F2F2F2"/>
<path d="M13.358 129.755L6.67916 126.657L0 123.56L5.62192 118.31L11.2438 113.06L12.3011 121.408L13.358 129.755Z" fill="#F2F2F2"/>
<path d="M248.961 228.918L242.282 225.82L235.603 222.723L241.225 217.473L246.847 212.223L247.904 220.571L248.961 228.918Z" fill="#F2F2F2"/>
<path d="M285 258.032L278.692 262.063L272.384 266.094L272.568 257.658L272.751 249.221L278.876 253.627L285 258.032Z" fill="#F2F2F2"/>
<path d="M47.2964 96.7375L40.9883 100.769L34.6806 104.8L34.864 96.3639L35.0474 87.9272L41.1721 92.3323L47.2964 96.7375Z" fill="#F2F2F2"/>
</g>
<defs>
<clipPath id="clip0_1516_294">
<rect width="285" height="323" fill="white"/>
</clipPath>
</defs>
</svg>
