<svg width="130" height="115" viewBox="0 0 130 115" fill="none" xmlns="http://www.w3.org/2000/svg">
<g clip-path="url(#clip0_1513_204)">
<path d="M0 114.772C0 114.772 42.1814 -4.51464 130 0.376509C130 0.376509 119.109 15.9799 91.6198 21.0223C91.6198 21.0223 104.417 22.4028 114.788 19.3426C114.788 19.3426 108.564 37.0891 74.6832 39.5283C74.6832 39.5283 93.355 43.8112 101.652 41.3624C101.652 41.3624 99.4006 54.5911 64.9054 61.1652C62.8611 61.5513 49.0928 64.5986 60.1547 65.8246C60.1547 65.8246 76.0546 68.2799 80.2124 67.0506C80.2124 67.0506 66.5933 85.0932 33.1857 83.5647C29.9009 83.4135 28.3404 83.5647 28.3404 83.5647L0 114.772Z" fill="white"/>
</g>
<defs>
<clipPath id="clip0_1513_204">
<rect width="130" height="115" fill="white"/>
</clipPath>
</defs>
</svg>
